<?xml version="1.0" standalone="no"?>
<!DOCTYPE svg PUBLIC "-//W3C//DTD SVG 20010904//EN"
 "http://www.w3.org/TR/2001/REC-SVG-20010904/DTD/svg10.dtd">
<svg version="1.0" xmlns="http://www.w3.org/2000/svg"
 width="567.000000pt" height="318.000000pt" viewBox="0 0 567.000000 318.000000"
 preserveAspectRatio="xMidYMid meet">
<metadata>
Created by potrace 1.15, written by Peter Selinger 2001-2017
</metadata>
<g transform="translate(0.000000,318.000000) scale(0.100000,-0.100000)"
fill="#000000" stroke="none">
<path d="M3782 2928 c-7 -7 -12 -17 -12 -24 0 -7 -4 -14 -8 -16 -16 -6 -62
-116 -68 -161 -4 -30 -12 -47 -20 -47 -10 0 -14 -14 -14 -45 0 -33 4 -45 15
-45 10 0 15 -10 15 -30 0 -46 39 -139 85 -205 42 -59 87 -105 103 -105 5 0 17
-8 28 -17 33 -31 94 -54 179 -68 44 -7 68 -22 59 -36 -3 -5 4 -9 15 -9 13 0
21 6 21 18 0 13 14 20 61 29 62 12 162 55 189 81 12 13 11 14 -10 7 -14 -4
-28 -13 -32 -19 -10 -16 -164 -14 -218 3 -199 61 -346 206 -408 401 -19 62
-32 151 -23 168 4 9 20 41 34 71 27 56 30 70 9 49z"/>
<path d="M4637 2147 c-4 -10 -20 -12 -56 -10 -32 3 -51 1 -51 -6 0 -6 -9 -11
-19 -11 -11 0 -23 -5 -27 -11 -4 -8 -9 -7 -15 2 -6 10 -9 11 -9 2 0 -7 -7 -13
-15 -13 -8 0 -15 -4 -15 -9 0 -4 -11 -7 -25 -6 -14 2 -27 -1 -31 -6 -3 -5 -14
-9 -25 -9 -10 0 -19 -4 -19 -10 0 -5 -6 -10 -13 -10 -7 0 -19 -9 -27 -20 -8
-11 -21 -20 -30 -20 -8 0 -24 -11 -34 -25 -10 -14 -25 -25 -32 -25 -16 0 -90
-79 -86 -91 1 -5 -3 -8 -9 -7 -6 2 -16 -6 -22 -17 -7 -11 -31 -48 -54 -82 -24
-35 -43 -67 -43 -72 0 -5 -6 -11 -14 -14 -8 -3 -17 -19 -21 -36 -4 -17 -11
-31 -16 -31 -5 0 -9 -9 -9 -20 0 -24 -20 -70 -31 -70 -5 0 -7 -17 -6 -37 1
-26 -2 -37 -10 -36 -9 2 -11 -9 -6 -42 4 -31 2 -45 -6 -45 -6 0 -11 -9 -11
-20 0 -11 5 -20 12 -20 9 0 9 -3 0 -12 -15 -15 -16 -128 -1 -128 8 0 7 -5 -1
-15 -11 -13 -11 -20 0 -39 7 -14 9 -36 5 -55 -5 -25 -3 -31 10 -31 15 0 17 -6
11 -41 -4 -26 -3 -38 4 -34 5 3 15 -14 22 -39 7 -26 16 -46 20 -46 4 0 8 -11
8 -24 0 -14 4 -27 10 -31 13 -8 120 -165 120 -177 0 -5 6 -16 14 -24 11 -11
16 -11 19 -1 3 6 6 2 6 -10 1 -14 11 -26 30 -34 17 -7 32 -21 34 -31 3 -12 11
-16 21 -12 9 3 16 2 16 -3 0 -15 36 -53 49 -53 6 0 20 -8 30 -18 39 -34 50
-42 66 -42 8 0 15 -4 15 -10 0 -5 11 -10 25 -10 14 0 25 -4 25 -10 0 -5 9 -10
19 -10 11 0 23 -5 26 -11 4 -5 17 -9 28 -8 12 2 31 0 42 -4 12 -4 40 -8 63 -9
23 -1 42 -5 42 -10 0 -21 278 -5 350 20 8 3 25 5 37 6 12 1 25 4 29 9 4 4 15
7 25 7 23 0 70 25 62 33 -3 4 3 7 15 7 12 0 22 5 22 10 0 6 9 10 20 10 20 0
29 5 69 40 9 8 28 21 42 28 32 17 119 99 119 112 0 6 8 18 19 29 24 24 100
143 131 206 14 28 28 51 33 53 4 2 7 12 7 23 0 10 5 19 11 19 7 0 9 9 6 21 -6
24 1 51 12 44 4 -2 5 9 3 26 -3 19 0 29 8 29 10 0 10 3 1 14 -8 9 -8 16 -2 20
11 7 13 265 2 281 -4 6 -8 21 -9 34 0 14 -6 37 -13 53 -6 15 -9 34 -6 42 3 8
3 16 -1 18 -4 2 -24 37 -45 78 -50 101 -72 138 -100 169 -13 14 -35 42 -48 61
-13 19 -36 46 -51 58 -16 13 -28 30 -28 38 0 8 -7 14 -15 14 -22 0 -75 41 -75
57 0 7 -4 14 -10 14 -5 1 -15 2 -20 3 -6 0 -15 7 -19 15 -5 7 -13 11 -19 7
-14 -8 -69 13 -76 30 -3 7 -12 11 -19 8 -8 -3 -17 2 -21 11 -3 9 -11 13 -16
10 -6 -4 -18 -1 -26 6 -8 6 -28 12 -44 11 -17 0 -30 4 -30 9 0 5 -18 9 -40 9
-22 0 -40 5 -40 10 0 6 -7 10 -15 10 -8 0 -15 -4 -15 -10 0 -5 -7 -10 -16 -10
-8 0 -12 5 -9 10 4 6 -20 10 -64 10 -46 0 -71 -4 -75 -12 -5 -10 -7 -10 -12 0
-8 16 -41 16 -47 -1z m545 -215 c2 6 17 -14 33 -43 33 -62 40 -69 76 -69 32 0
90 -20 85 -28 -2 -4 7 -20 20 -37 l24 -30 -50 -50 -50 -50 30 -119 c32 -127
36 -156 20 -156 -6 0 -37 14 -70 30 -68 34 -70 35 -70 17 0 -7 -20 -24 -45
-37 -37 -20 -60 -25 -121 -25 -55 0 -77 4 -84 15 -7 12 -13 12 -33 1 -42 -22
-61 -11 -68 39 -3 25 -13 62 -23 82 -21 50 -21 141 1 179 l18 29 -58 54 c-31
30 -57 58 -57 64 0 11 62 22 185 31 l80 6 29 56 30 56 47 -12 c31 -8 49 -9 51
-3z m-518 -126 c-4 -9 -12 -15 -19 -12 -8 3 -15 -6 -18 -22 -4 -15 -22 -45
-42 -67 -84 -94 -175 -217 -169 -227 3 -4 23 -8 45 -8 21 0 39 -4 39 -10 0 -5
18 -10 39 -10 30 0 52 -9 88 -36 94 -70 143 -139 169 -237 11 -41 10 -49 -2
-54 -8 -3 -14 -12 -14 -20 0 -8 5 -11 10 -8 6 3 10 -1 10 -9 0 -9 -4 -16 -10
-16 -5 0 -10 -9 -10 -21 0 -11 5 -17 10 -14 13 8 12 -10 -4 -72 -17 -64 -50
-119 -85 -141 -14 -9 -36 -27 -49 -39 -13 -13 -27 -23 -33 -23 -6 0 -7 -5 -4
-10 4 -6 -7 -10 -24 -10 -17 0 -31 -4 -31 -10 0 -5 -13 -10 -30 -10 -16 0 -30
-4 -30 -10 0 -13 -174 -13 -198 -1 -9 5 -43 21 -74 36 -32 14 -60 31 -63 36
-4 5 -10 7 -15 4 -5 -3 -11 4 -15 15 -3 11 -11 20 -16 20 -5 0 -9 8 -9 18 0
14 -2 15 -10 2 -8 -13 -10 -13 -10 1 0 9 -6 19 -13 22 -21 8 -44 66 -50 124
-3 28 -10 61 -16 72 -9 16 -9 26 -1 42 7 11 9 32 6 45 -4 13 -3 24 2 24 4 0 9
10 9 22 1 13 6 24 11 26 6 2 8 11 5 21 -2 9 3 23 11 30 9 8 16 19 16 26 0 7
11 24 25 39 14 15 25 29 25 31 0 5 35 48 63 77 9 10 17 21 17 26 1 12 59 72
70 72 5 0 10 9 10 19 0 11 13 30 29 44 17 14 28 27 25 30 -3 3 13 24 35 47 22
24 43 50 46 59 3 9 15 27 26 41 19 22 30 25 114 30 51 3 97 8 101 13 11 11 15
2 8 -17z m576 -603 c0 -5 36 -6 80 -3 96 6 100 5 100 -27 0 -24 0 -24 -85 -21
l-85 3 0 -69 0 -69 35 6 c27 5 35 2 35 -10 0 -11 6 -14 25 -9 20 5 27 2 35
-16 5 -13 9 -17 9 -10 1 21 17 6 36 -34 19 -41 22 -113 5 -154 -8 -19 -27 -34
-63 -50 -29 -12 -62 -27 -75 -33 -18 -9 -25 -8 -33 3 -7 12 -11 12 -17 3 -6
-9 -12 -7 -22 7 -10 13 -21 18 -37 14 -14 -4 -23 -2 -23 6 0 6 9 14 20 17 11
3 20 9 20 14 0 17 19 9 25 -11 5 -16 15 -20 46 -20 44 0 54 7 88 63 12 20 27
37 32 37 5 0 9 11 9 25 0 15 -6 25 -14 25 -8 0 -17 8 -21 19 -9 29 -62 71 -90
71 -14 0 -25 -4 -25 -10 0 -5 -9 -10 -19 -10 -10 0 -22 -7 -25 -16 -13 -35
-18 -1 -18 120 1 69 1 131 2 136 0 11 50 14 50 3z m-178 -158 l-4 -155 41 0
c34 0 41 -3 41 -20 0 -17 -7 -20 -41 -20 l-41 0 4 -75 3 -75 -26 0 -26 0 5 75
5 75 -101 0 c-56 0 -104 4 -107 10 -3 5 14 36 40 67 54 69 44 56 133 176 41
53 74 97 75 97 1 0 0 -70 -1 -155z"/>
<path d="M4340 1330 c0 -5 -12 -10 -26 -10 -26 0 -58 -23 -47 -34 4 -3 0 -6
-8 -6 -15 0 -53 -52 -82 -112 -10 -21 -22 -38 -27 -38 -6 0 -10 -20 -10 -45 0
-34 7 -55 30 -87 17 -22 30 -49 30 -59 0 -20 66 -89 86 -89 8 0 14 -5 14 -11
0 -8 14 -10 40 -6 30 4 40 2 40 -9 0 -17 37 -19 42 -2 3 8 19 12 42 10 26 -3
36 0 32 7 -4 6 0 11 9 11 23 0 79 64 110 124 44 88 30 195 -34 263 -12 12 -21
32 -21 44 0 17 -4 20 -24 15 -14 -3 -28 -2 -31 4 -3 5 -15 10 -26 10 -10 0
-19 7 -19 15 0 8 -7 15 -15 15 -8 0 -15 -4 -15 -10 0 -5 -5 -10 -11 -10 -5 0
-7 5 -4 10 4 6 -10 10 -34 10 -23 0 -41 -4 -41 -10z"/>
<path d="M2488 1978 c-8 -13 -17 -31 -21 -40 -3 -10 -11 -18 -17 -18 -5 0 -10
-14 -10 -31 0 -17 4 -28 10 -24 5 3 12 -5 16 -19 3 -13 12 -27 20 -30 8 -3 18
-16 24 -30 7 -18 14 -23 29 -19 12 3 21 1 21 -6 0 -6 14 -11 30 -11 20 0 30 5
30 15 0 8 7 15 15 15 16 0 55 34 55 49 0 5 -12 5 -28 -1 -38 -15 -78 -3 -114
33 -28 27 -30 34 -26 84 5 60 -8 73 -34 33z"/>
<path d="M184 1652 c0 -34 -4 -56 -13 -61 -8 -5 -10 -14 -6 -20 12 -20 -41
-225 -55 -216 -6 4 -10 1 -10 -4 0 -6 5 -11 10 -11 6 0 10 -5 10 -11 0 -5 -4
-8 -9 -5 -5 3 -8 -9 -7 -27 1 -23 -3 -31 -13 -29 -11 2 -13 -7 -8 -42 4 -27 2
-48 -4 -52 -6 -3 -8 -18 -5 -32 4 -16 0 -39 -9 -56 -9 -16 -13 -37 -10 -46 3
-10 -1 -25 -10 -33 -11 -12 -12 -17 -2 -20 9 -4 9 -6 0 -6 -7 -1 -13 -12 -13
-26 l0 -25 195 0 195 0 0 26 c0 14 4 23 10 19 6 -4 10 10 10 35 0 27 4 39 11
34 7 -4 10 9 8 41 -2 31 1 49 10 55 10 5 12 20 9 47 -6 39 8 63 34 63 10 0 9
-3 -1 -9 -12 -8 -12 -12 -2 -25 9 -10 11 -29 6 -56 -5 -32 -4 -40 8 -40 13 0
15 -12 11 -65 -4 -53 -2 -65 10 -65 12 0 14 -7 10 -30 l-6 -30 128 0 129 0 28
60 c15 33 41 79 56 103 16 23 49 80 73 126 46 87 81 125 53 57 -8 -19 -15 -45
-15 -56 0 -11 -5 -20 -10 -20 -6 0 -9 -19 -8 -42 2 -31 -1 -42 -10 -40 -10 2
-12 -8 -7 -42 5 -28 3 -46 -4 -50 -6 -4 -11 -18 -11 -32 0 -14 -5 -34 -10 -45
-10 -18 -5 -19 196 -19 l206 0 -6 30 c-4 23 -2 30 10 30 13 0 15 10 12 48 -2
36 0 46 11 44 11 -2 12 6 7 38 -3 23 -3 47 1 53 4 7 9 28 10 47 1 19 7 36 13
38 5 2 10 24 10 48 0 24 5 44 10 44 6 0 10 16 8 36 -1 21 3 39 11 44 10 5 12
18 7 43 -5 28 -3 38 11 47 10 6 13 13 8 16 -16 7 -6 74 11 74 8 0 14 7 14 16
0 8 -4 13 -9 9 -6 -3 -7 9 -4 30 l6 35 -260 0 c-298 0 -267 10 -329 -108 -9
-19 -23 -36 -31 -39 -7 -3 -13 -11 -13 -19 0 -18 -58 -122 -73 -131 -7 -4 -8
10 -4 45 4 35 2 52 -6 56 -9 3 -9 5 1 5 17 1 15 31 -3 31 -12 0 -14 8 -9 40 5
33 3 43 -12 55 -18 13 -18 14 -1 20 24 10 21 18 -10 32 -19 8 -113 13 -289 15
l-261 3 1 -53z"/>
<path d="M1650 1550 c0 -5 -20 -10 -44 -10 -48 0 -96 -29 -96 -59 0 -9 -9 -27
-21 -40 -11 -12 -18 -29 -15 -37 8 -22 -4 -65 -16 -58 -6 4 -9 -7 -7 -27 3
-55 0 -81 -11 -74 -6 4 -10 -14 -10 -47 0 -40 -3 -49 -11 -38 -8 11 -9 8 -4
-13 7 -33 -2 -70 -16 -62 -5 4 -9 -16 -9 -45 0 -31 4 -49 10 -45 5 3 15 -5 21
-18 20 -43 44 -47 317 -47 262 0 330 8 341 41 2 7 12 22 23 33 10 11 18 25 18
32 0 7 4 14 9 16 9 3 16 31 28 106 l5 32 -166 0 -166 0 0 -25 c0 -14 -4 -25
-10 -25 -5 0 -10 -10 -10 -23 0 -28 -17 -47 -42 -47 -15 0 -18 9 -18 53 0 37
3 48 10 37 7 -11 10 -7 10 18 l0 32 198 0 198 0 2 37 c3 43 10 56 24 47 7 -5
9 4 4 28 -4 23 -1 40 9 53 14 20 22 115 8 101 -4 -4 -14 8 -23 26 -13 29 -21
33 -58 36 -23 2 -42 7 -42 13 0 5 -89 9 -220 9 -140 0 -220 -4 -220 -10z"/>
<path d="M2440 1550 c0 -5 -19 -10 -41 -10 -28 0 -46 -6 -55 -17 -7 -10 -17
-19 -23 -19 -6 -1 -15 -2 -20 -3 -4 0 -16 -21 -25 -46 -10 -25 -21 -45 -25
-45 -4 0 -8 -15 -9 -32 -2 -18 -7 -34 -12 -36 -6 -2 -10 -26 -10 -53 0 -27 -4
-49 -10 -49 -5 0 -10 -17 -10 -37 0 -51 -18 -113 -33 -113 -7 0 -4 -5 6 -11 9
-5 17 -14 17 -19 0 -6 -8 -10 -17 -11 -11 0 -13 -3 -5 -6 11 -4 46 -59 47 -75
1 -27 31 -32 188 -32 75 -1 137 -4 137 -7 0 -13 -65 -19 -199 -19 -160 0 -182
-4 -180 -34 3 -38 -1 -57 -11 -51 -5 3 -10 -3 -10 -14 0 -15 6 -21 23 -21 12
0 150 -1 307 -3 245 -3 289 -2 316 12 31 16 64 60 64 87 0 8 5 14 10 14 6 0
10 14 10 30 0 17 4 30 8 30 5 0 8 21 8 47 -1 29 4 48 12 50 7 3 12 23 12 54 0
27 5 49 10 49 6 0 10 18 9 43 -1 23 4 55 10 70 6 16 9 32 6 36 -2 4 1 25 7 47
6 21 11 45 9 52 -1 6 2 12 6 12 5 0 10 19 10 42 1 24 7 44 13 46 5 2 10 15 10
28 l0 24 -280 0 c-180 0 -280 -4 -280 -10z m190 -200 c0 -22 -4 -40 -10 -40
-5 0 -10 -21 -10 -46 0 -27 -4 -43 -10 -39 -6 4 -10 -12 -10 -39 0 -25 -5 -46
-10 -46 -6 0 -8 -10 -5 -22 5 -20 2 -23 -30 -25 -34 -3 -35 -2 -35 31 0 19 5
47 11 63 6 15 13 46 15 67 2 22 11 47 19 57 13 13 14 18 3 23 -10 5 -10 7 0
12 6 3 12 12 12 19 0 14 15 23 43 24 13 1 17 -7 17 -39z"/>
<path d="M3200 1551 c0 -5 -15 -9 -32 -9 -18 0 -40 -2 -48 -4 -28 -6 -67 -54
-85 -106 -10 -28 -22 -49 -27 -46 -4 3 -8 -6 -8 -20 l0 -26 136 0 c103 0 135
-3 132 -12 -3 -8 -19 -12 -41 -10 -22 2 -37 -1 -37 -7 0 -6 -16 -11 -35 -11
-19 0 -35 -4 -35 -10 0 -5 -13 -10 -30 -10 -16 0 -30 -4 -30 -10 0 -5 -8 -10
-18 -10 -10 0 -27 -18 -42 -46 -13 -26 -30 -53 -38 -60 -7 -8 -9 -14 -3 -14 7
0 7 -8 0 -27 -16 -43 10 -161 32 -147 5 2 17 -4 29 -16 18 -18 33 -20 125 -20
70 0 117 5 140 14 31 13 35 13 35 0 0 -12 26 -14 150 -14 137 0 152 2 170 20
15 15 19 27 14 47 -5 19 -2 30 11 40 11 7 13 13 7 13 -7 0 -12 5 -12 11 0 5 4
8 9 5 5 -3 8 9 7 27 -1 22 3 31 13 29 11 -2 12 7 7 48 -4 27 -3 50 2 50 5 0
10 21 11 47 1 26 5 49 9 53 5 3 9 25 10 50 0 25 6 46 12 48 12 4 14 52 2 52
-5 0 -17 16 -28 35 -18 33 -32 40 -76 36 -10 -1 -18 3 -18 8 0 8 -68 11 -210
11 -118 0 -210 -4 -210 -9z"/>
<path d="M1330 750 c0 -11 -7 -20 -15 -20 -8 0 -15 -6 -15 -13 0 -24 -51 -87
-70 -87 -11 0 -20 -6 -20 -13 0 -8 -9 -22 -21 -33 -31 -28 -49 -68 -49 -109 0
-43 45 -116 66 -108 8 3 14 0 14 -6 0 -6 11 -11 25 -11 14 0 25 5 25 10 0 6
13 8 30 5 23 -4 32 -1 37 12 3 10 17 31 31 47 13 17 28 40 33 53 5 13 13 23
19 23 5 0 10 11 10 25 0 14 -4 25 -9 25 -5 0 -16 18 -25 40 -9 22 -21 40 -26
40 -6 0 -16 14 -21 30 -6 17 -15 30 -20 30 -5 0 -9 5 -9 11 0 6 6 9 13 6 17
-6 39 27 31 48 -9 22 -34 19 -34 -5z m-27 -187 c11 -10 17 -12 13 -5 -7 11 -4
12 13 3 24 -13 27 -46 9 -86 -13 -29 -38 -38 -94 -33 -36 3 -39 6 -42 36 -3
24 1 32 13 32 11 0 15 7 13 20 -2 14 6 25 22 34 33 18 31 19 53 -1z"/>
<path d="M1922 692 c-11 -10 -22 -29 -24 -42 -2 -19 -9 -25 -28 -25 -16 0 -26
-7 -30 -22 -3 -12 -20 -38 -37 -58 -49 -55 -46 -94 13 -152 42 -41 50 -45 81
-40 20 4 43 13 53 22 9 8 24 13 33 10 11 -5 22 9 41 49 15 31 31 56 36 56 6 0
10 16 10 35 0 19 -5 35 -11 35 -5 0 -17 16 -25 36 -10 25 -20 34 -30 30 -8 -3
-14 0 -13 7 3 28 -3 43 -25 59 -22 16 -25 16 -44 0z m55 -143 c19 -36 16 -56
-14 -84 -38 -35 -110 -36 -118 -2 -10 41 9 81 41 88 16 4 25 7 21 8 -5 0 -6 5
-2 10 11 18 60 5 72 -20z"/>
<path d="M905 613 c4 -21 10 -40 14 -43 12 -8 31 -47 31 -63 0 -7 -20 -35 -45
-61 -46 -50 -57 -76 -29 -76 21 0 84 49 84 66 0 8 6 14 14 14 15 0 26 -21 26
-50 0 -14 10 -21 35 -26 20 -3 38 -4 41 -1 3 3 -2 21 -10 41 -8 20 -12 36 -8
36 4 0 -1 7 -12 15 -16 12 -17 18 -7 43 7 16 28 43 46 61 19 18 35 37 35 42 0
5 7 9 16 9 32 0 6 25 -29 28 -28 2 -37 0 -37 -13 0 -8 -7 -18 -16 -22 -8 -3
-20 -16 -25 -30 -7 -20 -11 -22 -28 -11 -18 11 -37 52 -33 71 1 4 -14 7 -34 7
l-36 0 7 -37z"/>
<path d="M1601 608 c-17 -23 -31 -46 -31 -50 0 -4 -7 -8 -15 -8 -8 0 -15 -7
-15 -15 0 -8 5 -15 12 -15 6 0 23 -13 37 -29 15 -17 39 -31 55 -33 16 -1 31
-9 34 -16 2 -7 -2 -10 -12 -6 -9 3 -16 1 -16 -5 0 -6 -7 -11 -16 -11 -8 0 -12
5 -9 10 3 6 -3 10 -14 10 -12 0 -21 5 -21 10 0 15 -39 12 -56 -4 -8 -8 -14
-26 -14 -39 0 -19 5 -24 23 -23 12 0 21 -4 20 -11 -2 -7 7 -10 22 -7 14 2 25
0 25 -6 0 -5 9 -10 20 -10 11 0 20 5 20 10 0 6 12 8 26 6 21 -4 28 0 40 30 8
18 19 34 24 34 6 0 10 11 10 25 0 27 -40 72 -68 77 -26 5 -42 21 -28 30 16 11
38 10 31 -2 -11 -18 31 -11 48 8 21 23 21 32 -2 60 -14 16 -30 22 -59 22 -36
0 -44 -5 -71 -42z"/>
<path d="M2205 638 c-3 -7 -3 -22 -1 -33 3 -11 5 -28 5 -37 1 -11 11 -18 29
-20 25 -3 27 -6 23 -43 -1 -22 -7 -42 -11 -45 -4 -3 -7 -23 -7 -45 2 -30 7
-41 20 -43 23 -5 49 17 43 35 -3 8 1 16 10 20 12 4 14 14 9 43 -5 27 -2 42 9
53 9 9 16 19 16 24 0 4 15 8 33 8 31 0 32 1 35 48 l3 47 -106 0 c-75 0 -107
-4 -110 -12z"/>
<path d="M2465 640 c4 -7 -2 -14 -14 -17 -22 -6 -29 -23 -10 -23 13 0 6 -90
-8 -113 -10 -17 -4 -62 13 -95 13 -25 18 -27 84 -27 l70 -1 31 65 c18 36 32
78 32 94 0 15 4 27 9 27 18 0 39 31 45 65 4 28 2 35 -11 35 -9 0 -16 -5 -16
-11 0 -8 -4 -8 -14 1 -8 6 -25 10 -38 8 -19 -2 -23 -9 -24 -43 -2 -59 -15
-128 -28 -145 -6 -8 -30 -17 -53 -18 -42 -4 -43 -3 -43 26 0 17 6 37 14 44 7
8 13 33 12 58 -1 33 3 44 12 42 8 -1 12 5 10 15 -2 13 -14 19 -42 21 -26 2
-36 0 -31 -8z"/>
<path d="M2920 634 c0 -11 -6 -14 -20 -9 -14 4 -20 2 -20 -8 0 -8 -7 -21 -16
-28 -9 -8 -27 -30 -39 -49 -26 -42 -23 -107 6 -139 10 -11 19 -25 19 -30 0 -6
7 -8 15 -5 8 4 15 1 15 -5 0 -6 14 -11 30 -11 17 0 30 4 30 10 0 5 12 8 27 7
20 -2 30 5 44 30 18 33 16 80 -2 51 -7 -10 -9 -10 -9 0 0 14 -27 17 -32 3 -4
-12 -69 -17 -86 -7 -22 13 -14 75 13 101 24 24 52 35 40 15 -3 -5 -1 -10 4
-10 6 0 11 4 11 9 0 6 9 9 20 8 10 -1 17 -3 15 -5 -7 -8 23 -32 39 -32 9 0 16
7 16 15 0 8 4 15 9 15 13 0 20 25 14 50 -4 15 -11 20 -25 17 -11 -3 -21 0 -25
9 -8 21 -93 19 -93 -2z"/>
<path d="M3109 634 c-1 -34 -8 -59 -17 -62 -4 -1 -7 -21 -6 -43 1 -27 -3 -42
-12 -46 -10 -4 -12 -16 -8 -44 5 -30 3 -40 -10 -45 -38 -15 3 -30 52 -19 17 4
22 12 22 39 0 38 12 46 71 46 l40 0 -14 -27 c-20 -40 -11 -65 21 -61 23 3 27
10 38 63 30 138 38 165 46 165 17 0 3 45 -15 48 -30 6 -67 -7 -67 -23 0 -8 4
-15 9 -15 5 0 4 -17 -1 -40 -10 -40 -11 -40 -59 -40 l-48 0 6 38 c3 20 12 43
21 49 20 16 13 22 -32 30 -30 5 -36 3 -37 -13z"/>
<path d="M3455 640 c-3 -5 -15 -10 -26 -10 -11 0 -18 -4 -15 -9 3 -5 -10 -28
-29 -51 -19 -23 -35 -48 -35 -55 0 -7 -7 -15 -15 -19 -24 -9 -18 -32 20 -73
19 -21 35 -43 35 -48 0 -12 110 -13 129 -1 7 5 15 6 17 3 7 -7 44 30 44 43 0
6 4 10 9 10 15 0 30 61 26 100 -7 64 -20 95 -40 95 -10 0 -20 6 -23 13 -5 15
-88 17 -97 2z m87 -89 c24 -23 19 -60 -11 -92 -15 -16 -29 -20 -67 -17 l-48 3
-2 38 c-1 32 4 41 28 55 15 9 28 20 28 24 0 16 51 8 72 -11z"/>
<path d="M3687 643 c-4 -3 -7 -20 -7 -37 0 -17 -4 -47 -9 -66 -5 -19 -14 -61
-21 -92 -7 -32 -17 -58 -22 -58 -4 0 -8 -4 -8 -10 0 -15 56 -12 69 4 6 8 16
41 22 75 6 34 14 61 18 61 3 0 11 -10 17 -23 6 -12 21 -40 32 -63 29 -57 47
-70 77 -56 20 9 25 19 25 49 1 51 17 117 30 121 6 2 8 17 4 38 -5 27 -3 34 10
34 24 0 19 17 -6 24 -64 17 -74 7 -68 -63 1 -14 -2 -21 -9 -17 -6 4 -9 -7 -8
-30 3 -47 -13 -52 -34 -11 -9 18 -27 53 -40 79 -17 34 -30 48 -45 48 -11 0
-24 -3 -27 -7z"/>
</g>
</svg>
